<?xml version="1.0" encoding="UTF-8"?>
<svg width="100px" height="100px" viewBox="0 0 100 100" version="1.1" xmlns="http://www.w3.org/2000/svg" xmlns:xlink="http://www.w3.org/1999/xlink">
    <!-- Generator: Sketch 55.2 (78181) - https://sketchapp.com -->
    <title>leaf_icon</title>
    <desc>Created with Sketch.</desc>
    <g id="leaf_icon" stroke="none" stroke-width="1" fill="none" fill-rule="evenodd">
        <rect id="Rectangle" fill="#FFFFFF" x="0" y="0" width="100" height="100"></rect>
        <path d="M74,49.93325 C74,37.67225 54.593,11.99525 52.382,9.10925 C51.245,7.63025 48.755,7.63025 47.618,9.10925 C45.407,11.99525 26,37.67225 26,49.93325 C26,62.14925 35.18,72.24125 47,73.72625 L47,88.93325 C47,90.59225 48.344,91.93325 50,91.93325 C51.656,91.93325 53,90.59225 53,88.93325 L53,73.72625 C64.82,72.24125 74,62.14925 74,49.93325 Z M53,67.66325 L53,40.93325 C53,39.27725 51.656,37.93325 50,37.93325 C48.344,37.93325 47,39.27725 47,40.93325 L47,67.66325 C38.501,66.22925 32,58.83725 32,49.93325 C32,42.29825 43.403,25.02725 50,15.95525 C56.594,25.02425 68,42.29525 68,49.93325 C68,58.83425 61.499,66.22625 53,67.66325 Z" id="Shape" fill="#20B566"></path>
    </g>
</svg>